<?xml version="1.0" encoding="UTF-8"?>
<svg version="1.1" xmlns="http://www.w3.org/2000/svg" width="512" height="512">
<path d="M0 0 C2.93368357 2.03252965 5.41212506 4.55098665 8 7 C22.42538929 19.91983849 37.95119264 31.19859584 54 42 C54.80598633 42.54414551 55.61197266 43.08829102 56.44238281 43.64892578 C79.2890445 59.07561697 79.2890445 59.07561697 103.0625 73 C117.21517149 80.69820965 130.51846431 89.81819974 143 100 C143.55606934 100.45310547 144.11213867 100.90621094 144.68505859 101.37304688 C163.62672234 116.93627356 178.90301747 134.30755354 192 155 C192.67675781 156.04929688 193.35351562 157.09859375 194.05078125 158.1796875 C200.44044356 168.65412391 204.62165191 180.0428793 208.98193359 191.47314453 C209.88647654 193.71823314 210.88086348 195.85546014 212 198 C212.71800781 197.52691406 213.43601562 197.05382812 214.17578125 196.56640625 C231.40860083 185.55714542 249.5862493 178.84815177 268.9977417 172.64190674 C309.77721042 159.82021122 309.77721042 159.82021122 348.20678711 141.35131836 C353.42897135 138.41360411 356.98370597 137.09659483 363 138 C383.81248393 152.76899633 391.88778016 201.07744448 396 224.55078125 C404.51640381 276.95032133 394.62216847 330.05469872 363.51953125 373.5078125 C349.00987388 393.11560801 330.61578442 408.80028952 309 420 C308.36400879 420.3309668 307.72801758 420.66193359 307.07275391 421.00292969 C270.54149561 439.73001574 229.98893385 443.64945434 189.5 443.5625 C188.4900145 443.5624037 188.4900145 443.5624037 187.45962524 443.56230545 C165.3981087 443.55949052 144.50100113 442.07826735 123 437 C120.4203215 436.44819014 117.83957903 435.90133153 115.2578125 435.359375 C69.19316042 425.44131661 23.10911274 408.76998459 -14 379 C-15.00804688 378.195625 -16.01609375 377.39125 -17.0546875 376.5625 C-62.197464 339.82921761 -87.14397872 287.11650672 -93.62890625 229.78515625 C-101.11865058 153.38976411 -74.45031381 77.04881996 -26 18 C-9.21317247 -2.41656983 -9.21317247 -2.41656983 0 0 Z " fill="#87BF56" transform="translate(104,35)"/>
<path d="M0 0 C6.29638425 4.40091807 11.68192662 9.40771678 17.0625 14.875 C17.82626953 15.63941406 18.59003906 16.40382812 19.37695312 17.19140625 C24.11766505 21.96861639 28.61990794 26.89223561 33 32 C33.96116228 33.09469683 34.92335298 34.1884918 35.88671875 35.28125 C53.73804192 55.71109763 68.95963493 78.22515973 82 102 C82.71470459 103.30179199 82.71470459 103.30179199 83.44384766 104.62988281 C104.78659742 143.82740741 119.62154272 185.42584188 129 229 C129.22961426 230.04446289 129.45922852 231.08892578 129.69580078 232.16503906 C132.97303116 247.15268738 135.17557972 262.08647724 136.71899414 277.34814453 C136.9568167 279.59247869 137.23666087 281.82291456 137.54296875 284.05859375 C138.12000975 289.03495587 138.35201552 293.99668035 138.5625 299 C138.60568359 299.96550781 138.64886719 300.93101562 138.69335938 301.92578125 C138.79841713 304.28374425 138.90056914 306.64179416 139 309 C147.66523378 294.26349006 156.25287381 279.64892061 162.88232422 263.86791992 C167.90208729 251.96547206 173.65301248 241.60112019 181.34716797 231.23535156 C183.00213318 228.99711501 184.61681413 226.73461843 186.22265625 224.4609375 C204.79169878 198.25478686 225.30201651 173.35610006 247.23974609 149.90405273 C248.58661645 148.44715372 249.92050797 146.97824614 251.24853516 145.50415039 C259.2555235 136.65034104 267.65944712 128.22602664 276.125 119.8125 C277.560132 118.38239842 278.9950293 116.95206127 280.4296875 115.52148438 C283.95049537 112.01167272 287.47465547 108.50525445 291 105 C291.33 104.67 291.66 104.34 292 104 C271.48453055 115.41097118 252.76175975 128.97331836 235.41015625 144.8125 C233.07418746 146.93266617 230.69673125 148.9969731 228.3125 151.0625 C224.89406522 154.09912007 221.86715332 157.27707966 218.921875 160.76953125 C216.65182681 163.40407904 214.26230144 165.9087544 211.875 168.4375 C203.05946731 177.90677925 195.46979947 188.45683285 188 199 C186.89387304 195.64711339 187.12957771 193.37299122 187.890625 189.94921875 C188.10436768 188.9533374 188.31811035 187.95745605 188.53833008 186.93139648 C188.77318115 185.86091064 189.00803223 184.7904248 189.25 183.6875 C196.37211162 149.24620684 198.55147334 113.48293442 189.18261719 79.17211914 C187.48734857 72.84403471 187.48734857 72.84403471 189 70 C205.12670913 57.05983993 226.68576708 50.81633393 245.9977417 44.64190674 C286.77721042 31.82021122 286.77721042 31.82021122 325.20678711 13.35131836 C330.42897135 10.41360411 333.98370597 9.09659483 340 10 C360.81248393 24.76899633 368.88778016 73.07744448 373 96.55078125 C381.51640381 148.95032133 371.62216847 202.05469872 340.51953125 245.5078125 C326.00987388 265.11560801 307.61578442 280.80028952 286 292 C285.36400879 292.3309668 284.72801758 292.66193359 284.07275391 293.00292969 C265.06786776 302.74543939 245.00758769 308.45883493 224 312 C223.03610352 312.16516113 222.07220703 312.33032227 221.07910156 312.50048828 C204.78698575 315.13942898 188.52422053 315.26037139 172.0625 315.25 C171.0113501 315.24940582 169.9602002 315.24881165 168.87719727 315.24819946 C147.38454229 315.20181757 147.38454229 315.20181757 137 314 C136.8956665 313.39567139 136.79133301 312.79134277 136.68383789 312.16870117 C122.0771765 229.00584077 87.40570043 149.08487561 42.51611328 70.63818359 C41.02551721 68.0444024 39.55468555 65.44042985 38.08984375 62.83203125 C27.6256861 44.24456849 16.59735724 25.9438649 4.54101562 8.34106445 C2.65712615 5.57884814 1.06327486 3.18982458 0 0 Z " fill="#638B3F" transform="translate(127,163)"/>
<path d="M0 0 C0.99 0.495 0.99 0.495 2 1 C0.96709839 1.92679565 0.96709839 1.92679565 -0.08666992 2.87231445 C-8.06250547 10.09858349 -15.74078334 17.58582228 -23.33813477 25.20776367 C-25.32389676 27.19892777 -27.3150074 29.18463221 -29.30664062 31.16992188 C-37.68510881 39.53686848 -37.68510881 39.53686848 -45.59155273 48.34643555 C-47.92636164 51.08757972 -50.41219778 53.68683706 -52.875 56.3125 C-57.35545146 61.12889801 -61.60958253 66.06852978 -65.73046875 71.19921875 C-67.77899666 73.72726438 -69.8677837 76.21006774 -71.98193359 78.68286133 C-78.20206038 85.95929776 -84.16879215 93.40892312 -90 101 C-90.47018555 101.61182129 -90.94037109 102.22364258 -91.42480469 102.85400391 C-101.40881701 115.89676069 -110.9499178 129.29178726 -120 143 C-121.31573566 139.05279302 -120.00120298 136.85242783 -118.5 133.1875 C-115.79767317 126.30745196 -113.42140461 119.3582959 -111.1875 112.3125 C-110.88585937 111.36850342 -110.58421875 110.42450684 -110.2734375 109.4519043 C-108.67671711 104.4524506 -108.67671711 104.4524506 -107.5402832 99.33666992 C-106.89517039 96.54662261 -105.63948484 95.51865372 -103.57421875 93.625 C-101.54710471 91.53249519 -99.9390682 89.2484611 -98.25 86.875 C-91.64430557 77.65172198 -84.34631408 69.15418858 -76.6328125 60.85546875 C-74.31068635 58.33696101 -72.05461464 55.77692259 -69.8125 53.1875 C-66.80119788 49.78606967 -63.63390994 46.78273386 -60.1640625 43.85546875 C-57.726442 41.76545117 -55.404302 39.57176592 -53.0625 37.375 C-41.34217283 26.70836753 -28.37616891 17.46710461 -15 9 C-14.31502441 8.56574707 -13.63004883 8.13149414 -12.92431641 7.68408203 C-10.85309253 6.38057783 -8.7729966 5.09302404 -6.6875 3.8125 C-5.72626221 3.21356934 -5.72626221 3.21356934 -4.74560547 2.60253906 C-3.20054378 1.67105039 -1.60377367 0.82631518 0 0 Z " fill="#81AE57" transform="translate(420,265)"/>
</svg>
