<?xml version="1.0" encoding="UTF-8"?>
<svg version="1.1" xmlns="http://www.w3.org/2000/svg" width="1024" height="559">
<path d="M0 0 C337.92 0 675.84 0 1024 0 C1024 184.47 1024 368.94 1024 559 C686.08 559 348.16 559 0 559 C0 374.53 0 190.06 0 0 Z " fill="#FEFEFE" transform="translate(0,0)"/>
<path d="M0 0 C0.83075608 35.90783395 0.83075608 35.90783395 -4 51 C-4.37382813 52.25296875 -4.74765625 53.5059375 -5.1328125 54.796875 C-10.07322516 70.04344653 -19.23379524 82.86067376 -33.421875 90.7578125 C-37.82520543 92.87941716 -42.34003005 94.53752726 -47 96 C-48.10085938 96.35320312 -49.20171875 96.70640625 -50.3359375 97.0703125 C-54.25824483 98.06552481 -57.90020693 98.41063046 -61.9375 98.625 C-62.62134766 98.66367188 -63.30519531 98.70234375 -64.00976562 98.7421875 C-65.67279513 98.83522412 -67.33635847 98.91863787 -69 99 C-69.4686466 101.71263679 -69.92151967 104.42670064 -70.359375 107.14453125 C-70.79389232 109.75958366 -71.25886825 112.3492541 -71.765625 114.94921875 C-74.96820079 132.4435346 -74.74554856 150.26993584 -75 168 C-73.82896729 166.82304565 -73.82896729 166.82304565 -72.63427734 165.62231445 C-51.58153854 144.66518123 -23.85569301 139 5 139 C5 93.13 5 47.26 5 0 C8.63 0 12.26 0 16 0 C16 49.5 16 99 16 150 C-1.325 150.99 -1.325 150.99 -19 152 C-30.98887108 155.07680579 -30.98887108 155.07680579 -42.4375 159.25 C-43.40913086 159.6521875 -43.40913086 159.6521875 -44.40039062 160.0625 C-45.93709849 160.69994919 -47.46916229 161.3485797 -49 162 C-45.58284122 161.52430071 -42.16636893 161.04383638 -38.75 160.5625 C-37.29787109 160.36043945 -37.29787109 160.36043945 -35.81640625 160.15429688 C-34.88183594 160.02216797 -33.94726562 159.89003906 -32.984375 159.75390625 C-31.69611816 159.57323608 -31.69611816 159.57323608 -30.38183594 159.38891602 C-28.23321503 159.03808031 -26.11207342 158.52801835 -24 158 C-8.16 158 7.68 158 24 158 C24 116.09 24 74.18 24 31 C23.34 31 22.68 31 22 31 C22 27.37 22 23.74 22 20 C26.29 20 30.58 20 35 20 C35 69.5 35 119 35 170 C17.51 170 0.02 170 -18 170 C-30.58332943 171.45197388 -30.58332943 171.45197388 -43 173.6875 C-44.00740234 173.8721582 -44.00740234 173.8721582 -45.03515625 174.06054688 C-51.12494606 175.41578912 -54.64072113 178.68296044 -59 183 C-59.48184753 183.47446564 -59.96369507 183.94893127 -60.46014404 184.43777466 C-64.4841322 188.40654553 -68.46402208 192.41825598 -72.4375 196.4375 C-74.78752611 198.81403372 -77.14080107 201.18728084 -79.49609375 203.55859375 C-80.03455429 204.10535263 -80.57301483 204.65211151 -81.12779236 205.21543884 C-82.39974996 206.49589058 -83.6972673 207.75087218 -85 209 C-85.33 209 -85.66 209 -86 209 C-85.99920441 208.23817413 -85.99840881 207.47634827 -85.99758911 206.69143677 C-85.99535916 199.42687734 -86.02236404 192.16323657 -86.0802784 184.89892769 C-86.10905702 181.16633951 -86.12746218 177.4343659 -86.12011719 173.70166016 C-86.09529345 157.32976466 -86.15356325 142.21726597 -93 127 C-93.33 126.01 -93.66 125.02 -94 124 C-95.55847656 124.05220703 -95.55847656 124.05220703 -97.1484375 124.10546875 C-111.30675376 124.44386713 -120.82212241 122.13256123 -131.71484375 112.48046875 C-142.00263371 101.70148457 -146.12472536 86.11024787 -146.1875 71.625 C-146.14050178 69.74954741 -146.08405689 67.87415733 -146 66 C-130.74491589 65.13195517 -112.69310231 65.56806854 -100.5625 76.37890625 C-99.7890625 77.18134766 -99.7890625 77.18134766 -99 78 C-98.071875 78.91072266 -98.071875 78.91072266 -97.125 79.83984375 C-89.47101507 87.89247373 -87.42999084 96.03774599 -86.8125 106.9375 C-86.67644478 108.98850063 -86.5372823 111.03929827 -86.39453125 113.08984375 C-86.31489136 114.43357056 -86.31489136 114.43357056 -86.23364258 115.80444336 C-86.12513485 118.04144333 -86.12513485 118.04144333 -85 120 C-84.88406494 119.39937744 -84.76812988 118.79875488 -84.64868164 118.17993164 C-84.12393529 115.47333141 -83.59329853 112.76791952 -83.0625 110.0625 C-82.88009766 109.11697266 -82.69769531 108.17144531 -82.50976562 107.19726562 C-82.24389648 105.84858398 -82.24389648 105.84858398 -81.97265625 104.47265625 C-81.72914429 103.22367554 -81.72914429 103.22367554 -81.48071289 101.94946289 C-81 100 -81 100 -80 99 C-79.41265573 94.18377697 -80.59956039 91.28743354 -82.9296875 87.22265625 C-88.49955093 75.65604205 -87.85888547 58.7605344 -84.375 46.625 C-78.22688091 30.45137661 -65.57019915 16.46490101 -49.8125 9.15234375 C-33.4085103 2.43126464 -17.67564939 -0.47775371 0 0 Z " fill="#496D72" transform="translate(590,125)"/>
<path d="M0 0 C35.79433198 0 35.79433198 0 50 4 C50.69641602 4.19255371 51.39283203 4.38510742 52.11035156 4.58349609 C64.06530918 7.98579858 73.91305661 12.77171161 83.125 21.125 C83.69428223 21.64006104 84.26356445 22.15512207 84.85009766 22.68579102 C87.64883348 25.33418152 89.45737525 27.1516043 90 31 C89.00390625 33.359375 89.00390625 33.359375 87.5625 35.75 C86.85287109 36.94882813 86.85287109 36.94882813 86.12890625 38.171875 C85.75636719 38.77515625 85.38382812 39.3784375 85 40 C80.2367688 35.48746518 80.2367688 35.48746518 78.9375 32.8125 C77.70130572 30.42252439 76.39638089 30.18125489 74 29 C72.55242177 27.93017075 71.11587615 26.84533508 69.6875 25.75 C52.25238409 13.46093152 31.76463089 12.73038591 11 11 C11 53.24 11 95.48 11 139 C16.28 139 21.56 139 27 139 C43.99876882 140.7308349 67.13598964 145.94344835 80 158 C80.45410156 160.36010742 80.45410156 160.36010742 80.390625 163.10546875 C80.37773437 164.08837891 80.36484375 165.07128906 80.3515625 166.08398438 C80.31804687 167.10814453 80.28453125 168.13230469 80.25 169.1875 C80.23195313 170.22326172 80.21390625 171.25902344 80.1953125 172.32617188 C80.14814437 174.88504284 80.08234057 177.44205842 80 180 C75.99388178 179.24766343 72.39317327 178.09193526 68.5625 176.6875 C38.37918272 167.21390407 14.26338723 170 -19 170 C-19 120.5 -19 71 -19 20 C-14.71 20 -10.42 20 -6 20 C-6 23.63 -6 27.26 -6 31 C-6.66 31 -7.32 31 -8 31 C-8 72.91 -8 114.82 -8 158 C7.18 158 22.36 158 38 158 C46.02239172 159.13090985 53.26192815 160.1735215 61 162 C61.99 162 62.98 162 64 162 C58.58406193 159.1334562 53.41066269 156.96944366 47.5 155.375 C46.3238916 155.05644043 46.3238916 155.05644043 45.12402344 154.73144531 C30.23968415 150.85875518 15.44284263 150.70194739 0 150 C0 100.5 0 51 0 0 Z " fill="#466B71" transform="translate(418,125)"/>
<path d="M0 0 C0.61910388 19.81132413 -1.40518731 39.23571163 -13 56 C-13.43957031 56.63679688 -13.87914062 57.27359375 -14.33203125 57.9296875 C-21.63777111 67.40398992 -34.44536987 73.51939094 -46.046875 75.52734375 C-48.37124942 75.76700382 -50.66473946 75.94201385 -53 76 C-52.37281069 71.35879907 -50.47955842 67.49889619 -48.375 63.375 C-48.015271 62.66569336 -47.65554199 61.95638672 -47.28491211 61.22558594 C-40.7200858 48.46875418 -32.35472703 36.86355397 -23 26 C-30.01951212 30.32361254 -36.00643519 35.35722912 -42 41 C-42.60585938 41.52980469 -43.21171875 42.05960938 -43.8359375 42.60546875 C-50.90830114 49.06356606 -57.01051611 58.29366775 -61 67 C-61.66 67 -62.32 67 -63 67 C-65.58221475 53.56831843 -64.95781543 40.25638181 -57.875 28.375 C-46.9293294 12.37748143 -32.23610985 5.46794279 -14 1 C-13.19691406 0.79246094 -12.39382813 0.58492187 -11.56640625 0.37109375 C-7.71539946 -0.18574894 -3.88384775 -0.07615388 0 0 Z " fill="#92A976" transform="translate(579,137)"/>
<path d="M0 0 C0.83075608 35.90783395 0.83075608 35.90783395 -4 51 C-4.56074219 52.87945312 -4.56074219 52.87945312 -5.1328125 54.796875 C-9.66201974 68.77442848 -18.48977932 83.08013087 -32 90 C-35.39379675 88.86873442 -36.78132865 87.77333918 -39 85 C-38.921875 83.05859375 -38.921875 83.05859375 -38 81 C-35.75 79.3671875 -35.75 79.3671875 -33 77.875 C-29.34006946 76.08743581 -29.34006946 76.08743581 -27 73 C-25.79537109 72.35224609 -25.79537109 72.35224609 -24.56640625 71.69140625 C-21.47767994 69.65576166 -21.01475017 68.41977382 -19.9375 64.9375 C-18.46357241 60.40830551 -16.81303974 56.05342288 -14.9296875 51.6796875 C-11.92808558 43.02801138 -11.59864528 34.54638607 -11.375 25.4375 C-11.33632813 24.14263672 -11.29765625 22.84777344 -11.2578125 21.51367188 C-11.16420106 18.34258424 -11.07846597 15.17149245 -11 12 C-30.49290039 14.41542461 -50.93629343 18.92159192 -64 35 C-74.55582174 49.07442899 -74.43753014 62.04402437 -74 79 C-71.61301495 78.06407353 -71.61301495 78.06407353 -70.4375 74.6875 C-62.89950554 59.22635807 -49.16587155 46.39660016 -35 37 C-34.01 37.495 -34.01 37.495 -33 38 C-33.60585938 38.69222656 -34.21171875 39.38445312 -34.8359375 40.09765625 C-46.27116921 53.45048836 -56.75328267 68.44619908 -63 85 C-63.66 84.34 -64.32 83.68 -65 83 C-64.37720331 81.41579871 -63.75166599 79.83267469 -63.125 78.25 C-62.77695312 77.36828125 -62.42890625 76.4865625 -62.0703125 75.578125 C-60.63361244 72.11746062 -59.0821924 69.12328861 -57 66 C-56.34 66 -55.68 66 -55 66 C-54.87625 65.29875 -54.7525 64.5975 -54.625 63.875 C-53.96161655 60.82343613 -53.02788045 57.94659062 -52 55 C-52.61875 55.639375 -53.2375 56.27875 -53.875 56.9375 C-56 59 -56 59 -58 60 C-58.226875 60.825 -58.45375 61.65 -58.6875 62.5 C-60.21019716 66.56052577 -62.34868686 69.21289003 -65.0546875 72.55859375 C-69.1512159 77.69981916 -73.19955656 83.03027422 -76 89 C-78.83406828 88.6256891 -80.56948071 88.38784694 -83 87 C-86.65091472 80.76940236 -86.50726974 73.24580125 -86.4375 66.25 C-86.42992676 65.18958496 -86.42235352 64.12916992 -86.41455078 63.03662109 C-86.05208144 45.77831797 -79.22089882 33.06295506 -67 21 C-48.66332602 4.30105128 -24.12287628 -0.65201528 0 0 Z " fill="#446C6C" transform="translate(590,125)"/>
<path d="M0 0 C3.63 0 7.26 0 11 0 C11 49.5 11 99 11 150 C-0.55 150.66 -12.1 151.32 -24 152 C-36.97639211 155.45103871 -36.97639211 155.45103871 -49.22460938 160.15039062 C-50.79586406 160.81754368 -52.39605945 161.41578324 -54 162 C-54.66 161.67 -55.32 161.34 -56 161 C-55.01 160.67 -54.02 160.34 -53 160 C-53.99 158.02 -54.98 156.04 -56 154 C-56.99 154 -57.98 154 -59 154 C-58 151 -58 151 -55.0703125 149.31640625 C-53.76309105 148.71435174 -52.44716942 148.13097653 -51.125 147.5625 C-50.41827148 147.25683105 -49.71154297 146.95116211 -48.98339844 146.63623047 C-33.29360716 140.18598294 -16.78654737 139 0 139 C0 93.13 0 47.26 0 0 Z " fill="#446E73" transform="translate(595,125)"/>
<path d="M0 0 C0.33 0 0.66 0 1 0 C1 49.5 1 99 1 150 C8.26 150 15.52 150 23 150 C39.33693541 151.36141128 54.67113381 154.82411753 69 163 C65.79532593 164.06822469 64.77752983 163.94264159 61.578125 163.2578125 C60.71703125 163.07863281 59.8559375 162.89945313 58.96875 162.71484375 C57.62296875 162.42287109 57.62296875 162.42287109 56.25 162.125 C54.48475872 161.75078949 52.71913882 161.37836004 50.953125 161.0078125 C49.77991699 160.75475342 49.77991699 160.75475342 48.58300781 160.49658203 C30.37017672 156.99517386 11.54196853 158.40308627 -7 158 C-7 116.09 -7 74.18 -7 31 C-6.34 31 -5.68 31 -5 31 C-5 27.37 -5 23.74 -5 20 C-9.29 20 -13.58 20 -18 20 C-18 19.67 -18 19.34 -18 19 C-15.75006641 18.97292861 -13.50003905 18.95357171 -11.25 18.9375 C-9.99703125 18.92589844 -8.7440625 18.91429687 -7.453125 18.90234375 C-4 19 -4 19 0 20 C0 13.4 0 6.8 0 0 Z " fill="#F0F6F7" transform="translate(417,125)"/>
<path d="M0 0 C0.33 0 0.66 0 1 0 C1.495 10.395 1.495 10.395 2 21 C2.99 20.34 3.98 19.68 5 19 C8.35546875 18.8046875 8.35546875 18.8046875 12.1875 18.875 C13.45980469 18.89304688 14.73210937 18.91109375 16.04296875 18.9296875 C17.01878906 18.95289063 17.99460937 18.97609375 19 19 C19 19.33 19 19.66 19 20 C14.71 20 10.42 20 6 20 C6 23.63 6 27.26 6 31 C6.66 31 7.32 31 8 31 C8 72.91 8 114.82 8 158 C-7.84 158.33 -23.68 158.66 -40 159 C-50.89 160.98 -50.89 160.98 -62 163 C-63.32 162.67 -64.64 162.34 -66 162 C-44.83790161 150.04544922 -24.25466328 150 0 150 C0 100.5 0 51 0 0 Z " fill="#EDF4F3" transform="translate(606,125)"/>
<path d="M0 0 C15.25508411 -0.86804483 33.30689769 -0.43193146 45.4375 10.37890625 C45.953125 10.91386719 46.46875 11.44882813 47 12 C47.928125 12.91072266 47.928125 12.91072266 48.875 13.83984375 C59.29316094 24.80061724 59.18189538 36.61005423 59 51 C58.31550781 50.08541016 58.31550781 50.08541016 57.6171875 49.15234375 C49.62998482 38.52203294 40.16266395 30.50762141 28 25 C28.56847656 25.53367188 29.13695312 26.06734375 29.72265625 26.6171875 C35.7742437 32.45661579 42.28570104 38.85710313 45 47 C36.45545886 47.62142117 30.40044545 45.18786005 23.75 39.8125 C15.81103623 32.33124984 13.72161743 23.53965795 12 13 C12 12.34 12 11.68 12 11 C12.66 11 13.32 11 14 11 C14 7.7 14 4.4 14 1 C9.71 1 5.42 1 1 1 C1 4.96 1 8.92 1 13 C0.67 13 0.34 13 0 13 C0 8.71 0 4.42 0 0 Z " fill="#678773" transform="translate(444,191)"/>
<path d="M0 0 C9.45491625 -0.96043167 17.91629771 1.44797272 25.72265625 6.90234375 C31.88572935 12.12341869 35.03121086 16.86217122 36 25 C35.46632813 24.63648438 34.93265625 24.27296875 34.3828125 23.8984375 C28.70132466 20.06490764 22.90580146 16.4769019 17 13 C19.37682223 16.04233245 21.85110293 18.94939233 24.4375 21.8125 C33 31.51912716 33 31.51912716 33 35 C24.45545886 35.62142117 18.40044545 33.18786005 11.75 27.8125 C3.78867704 20.31017975 1.78252895 11.55025264 0 1 C0 0.67 0 0.34 0 0 Z " fill="#8FA77A" transform="translate(456,203)"/>
<path d="M0 0 C1.18529297 0.01353516 1.18529297 0.01353516 2.39453125 0.02734375 C3.28205078 0.04474609 3.28205078 0.04474609 4.1875 0.0625 C4.1875 1.7125 4.1875 3.3625 4.1875 5.0625 C3.09953125 5.23265625 2.0115625 5.4028125 0.890625 5.578125 C-17.81875943 8.6137536 -36.0208111 13.83809258 -47.8515625 29.81640625 C-53.69264698 39.14971358 -56.40993802 49.21327057 -57.8125 60.0625 C-58.4725 60.0625 -59.1325 60.0625 -59.8125 60.0625 C-60.42628166 43.21760338 -57.52684909 31.16066671 -45.75 18.375 C-34.17763385 7.4661422 -16.06778578 -0.2398177 0 0 Z " fill="#EDF5EE" transform="translate(574.8125,136.9375)"/>
<path d="M0 0 C3.3 0 6.6 0 10 0 C10 49.17 10 98.34 10 149 C1.42 149 -7.16 149 -16 149 C-16 148.67 -16 148.34 -16 148 C-7.75 148 0.5 148 9 148 C8.67 99.82 8.34 51.64 8 2 C5.69 2 3.38 2 1 2 C1.33 3.98 1.66 5.96 2 8 C2.33 8 2.66 8 3 8 C3.16856005 12.85613474 3.32901217 17.71244709 3.48217773 22.5690918 C3.53532451 24.21890344 3.5906298 25.8686471 3.64819336 27.51831055 C3.7308734 29.89877669 3.80561351 32.27938476 3.87890625 34.66015625 C3.90594131 35.38960953 3.93297638 36.11906281 3.96083069 36.87062073 C4.09025195 41.37993497 3.75811136 45.55088181 3 50 C2.34 50 1.68 50 1 50 C1.05329468 51.34964844 1.05329468 51.34964844 1.10766602 52.7265625 C2.1502841 80.52042833 1.78692924 108.20230454 1 136 C0.67 136 0.34 136 0 136 C0 91.12 0 46.24 0 0 Z M2 66 C2.33 66 2.66 66 3 66 C3 72.93 3 79.86 3 87 C2.67 87 2.34 87 2 87 C2 80.07 2 73.14 2 66 Z " fill="#3A5F63" transform="translate(596,126)"/>
<path d="M0 0 C15.98215826 -0.9094168 31.66457913 0.26302603 45 10 C44.01 10.66 43.02 11.32 42 12 C42.66 12.99 43.32 13.98 44 15 C42.02 15.33 40.04 15.66 38 16 C38 16.99 38 17.98 38 19 C37.28199219 18.71253906 36.56398438 18.42507812 35.82421875 18.12890625 C34.89222656 17.75636719 33.96023438 17.38382813 33 17 C32.16082031 16.65839844 31.32164062 16.31679687 30.45703125 15.96484375 C24.26698499 13.56014336 18.63537228 12.28786865 12 12 C12.66 11.67 13.32 11.34 14 11 C14 7.7 14 4.4 14 1 C9.71 1 5.42 1 1 1 C1 4.96 1 8.92 1 13 C0.67 13 0.34 13 0 13 C0 8.71 0 4.42 0 0 Z " fill="#76937B" transform="translate(444,191)"/>
<path d="M0 0 C0.66 0.33 1.32 0.66 2 1 C1.09121094 2.03833984 1.09121094 2.03833984 0.1640625 3.09765625 C-11.27116921 16.45048836 -21.75328267 31.44619908 -28 48 C-28.66 47.34 -29.32 46.68 -30 46 C-29.37720331 44.41579871 -28.75166599 42.83267469 -28.125 41.25 C-27.77695312 40.36828125 -27.42890625 39.4865625 -27.0703125 38.578125 C-25.63361244 35.11746062 -24.0821924 32.12328861 -22 29 C-21.34 29 -20.68 29 -20 29 C-19.87625 28.29875 -19.7525 27.5975 -19.625 26.875 C-18.96161655 23.82343613 -18.02788045 20.94659062 -17 18 C-17.61875 18.639375 -18.2375 19.27875 -18.875 19.9375 C-21 22 -21 22 -23 23 C-23.2475 23.845625 -23.495 24.69125 -23.75 25.5625 C-25.38112992 30.04810728 -28.02459648 33.31349375 -31 37 C-31.66 36.67 -32.32 36.34 -33 36 C-30.74796425 23.16932261 -14.700521 10.49081171 -4.6875 3.1875 C-3.13362648 2.11242345 -1.57460465 1.04447723 0 0 Z " fill="#4C6D5D" transform="translate(555,162)"/>
<path d="M0 0 C2 3 2 3 1.5 6.8125 C0.12820728 12.32674573 -2.22179349 17.40905465 -4.5625 22.5703125 C-6.00053258 26.00127066 -6.98913621 29.42478045 -8 33 C-9.4375 34.9375 -9.4375 34.9375 -11 36 C-11.99 36 -12.98 36 -14 36 C-14.24492188 36.60972656 -14.48984375 37.21945313 -14.7421875 37.84765625 C-16.25080963 40.42918045 -17.47683189 41.10418888 -20.125 42.4375 C-23.26288087 44.06175564 -26.20067773 45.76808628 -29.125 47.75 C-32.76058287 50.04013094 -35.66477787 50.70101916 -40 51 C-41.8128906 51.18368495 -43.62538149 51.37134826 -45.4375 51.5625 C-46.95819103 51.70980986 -48.47897677 51.85616078 -50 52 C-49.67 51.34 -49.34 50.68 -49 50 C-46.98828125 49.578125 -46.98828125 49.578125 -44.3125 49.25 C-31.83447659 47.14332072 -19.90386217 41.48505069 -11.97265625 31.4296875 C-5.46514252 21.77160159 -2.58822864 11.23526525 0 0 Z " fill="#4E7261" transform="translate(577,162)"/>
<path d="M0 0 C4.85970999 1.36219144 8.67400574 3.53745351 12.75 6.4375 C13.32621094 6.83259766 13.90242188 7.22769531 14.49609375 7.63476562 C17.29684461 9.59659693 19.08082611 11.12123916 21 14 C20.4740625 14.86625 20.4740625 14.86625 19.9375 15.75 C18.85082593 18.35801776 19.06934867 19.39417629 20 22 C19.01 22 18.02 22 17 22 C15.7109375 20.3828125 15.7109375 20.3828125 14.375 18.125 C11.35490976 13.32927881 7.81341749 9.30009017 3.953125 5.1640625 C2 3 2 3 0 0 Z " fill="#527668" transform="translate(471,215)"/>
<path d="M0 0 C0.33 0 0.66 0 1 0 C2.10156047 12.11716514 -4.53025472 23.53120196 -11.8125 32.75 C-15.2826381 36.64580837 -19.56801203 39.31126063 -24 42 C-24.33 41.34 -24.66 40.68 -25 40 C-19.85714286 34.42857143 -19.85714286 34.42857143 -16 34 C-15.896875 33.360625 -15.79375 32.72125 -15.6875 32.0625 C-15.460625 31.381875 -15.23375 30.70125 -15 30 C-14.01 29.67 -13.02 29.34 -12 29 C-10.96567096 27.01753602 -9.96761608 25.01586684 -9 23 C-8.484375 22.525625 -7.96875 22.05125 -7.4375 21.5625 C-5.6790705 19.65116358 -5.23305021 17.79991236 -4.60546875 15.31640625 C-3.79114049 12.20094394 -2.82876139 9.13796216 -1.875 6.0625 C-1.52179687 4.91910156 -1.16859375 3.77570313 -0.8046875 2.59765625 C-0.53914062 1.74042969 -0.27359375 0.88320312 0 0 Z " fill="#8BA983" transform="translate(575,164)"/>
<path d="M0 0 C0.33 0 0.66 0 1 0 C1.14695312 0.89460937 1.29390625 1.78921875 1.4453125 2.7109375 C3.39592023 13.22628264 6.47028205 22.07725843 15.15625 28.8203125 C21.0266309 32.5763613 27.14231412 33.53964609 34 34 C34 34.33 34 34.66 34 35 C25.41587605 35.38057692 19.14991062 35.64382396 12.4375 29.75 C11.633125 28.8425 10.82875 27.935 10 27 C9.505 26.47277344 9.01 25.94554687 8.5 25.40234375 C2.13479198 18.41652795 -1.08917092 11.59479099 -1 2 C-0.67 1.34 -0.34 0.68 0 0 Z " fill="#4F705E" transform="translate(456,204)"/>
<path d="M0 0 C4.29 0 8.58 0 13 0 C13 0.33 13 0.66 13 1 C12.37351562 1.03738281 11.74703125 1.07476562 11.1015625 1.11328125 C10.28429687 1.17902344 9.46703125 1.24476563 8.625 1.3125 C7.40683594 1.39951172 7.40683594 1.39951172 6.1640625 1.48828125 C3.62078662 1.82990528 3.62078662 1.82990528 2 5 C1.67256571 7.36230346 1.67256571 7.36230346 1.68115234 10.0222168 C1.66128265 11.04304855 1.64141296 12.06388031 1.62094116 13.11564636 C1.60938995 14.21572525 1.59783875 15.31580414 1.5859375 16.44921875 C1.56657135 17.5769722 1.5472052 18.70472565 1.5272522 19.86665344 C1.46740693 23.47352503 1.42105078 27.08042844 1.375 30.6875 C1.33682482 33.1308734 1.29777336 35.57423328 1.2578125 38.01757812 C1.1617013 44.01159884 1.07666822 50.00570079 1 56 C0.67 56 0.34 56 0 56 C0 37.52 0 19.04 0 0 Z " fill="#E5FBFD" transform="translate(429,136)"/>
<path d="M0 0 C-0.31846371 3.07500207 -0.55488115 4.5848681 -2.85546875 6.73046875 C-7.13916035 9.40687908 -11.05066238 11.73093907 -16 13 C-13.26743194 7.10749542 -7.30230898 -2.43410299 0 0 Z " fill="#F5F9F5" transform="translate(545,147)"/>
<path d="M0 0 C0.33 0 0.66 0 1 0 C1 2.31 1 4.62 1 7 C0.67 7 0.34 7 0 7 C0 23.17 0 39.34 0 56 C-0.99 56.495 -0.99 56.495 -2 57 C-2.33 39.51 -2.66 22.02 -3 4 C-2.01 3.67 -1.02 3.34 0 3 C0 2.01 0 1.02 0 0 Z M0 47 C0.33 47 0.66 47 1 47 C1 49.64 1 52.28 1 55 C0.67 55 0.34 55 0 55 C0 52.36 0 49.72 0 47 Z " fill="#3B656B" transform="translate(427,137)"/>
<path d="M0 0 C1.109375 1.75 1.109375 1.75 2 4 C1.390625 6 1.390625 6 0.25 8 C-0.11609375 8.66 -0.4821875 9.32 -0.859375 10 C-1.23578125 10.66 -1.6121875 11.32 -2 12 C-2.67404321 13.32961948 -3.34290816 14.66192207 -4 16 C-3.25234375 15.77183594 -2.5046875 15.54367188 -1.734375 15.30859375 C-0.74953125 15.02113281 0.2353125 14.73367187 1.25 14.4375 C2.22453125 14.14746094 3.1990625 13.85742188 4.203125 13.55859375 C6.96243932 13.00750164 8.3912824 13.06210391 11 14 C4.94526627 16.57886807 -0.44074057 17.61020794 -7 18 C-6.35534798 13.66695924 -4.81074878 10.13327935 -2.9375 6.1875 C-2.11572266 4.44533203 -2.11572266 4.44533203 -1.27734375 2.66796875 C-0.85582031 1.78753906 -0.43429687 0.90710938 0 0 Z " fill="#8BA984" transform="translate(533,195)"/>
<path d="M0 0 C0.33 0 0.66 0 1 0 C1 10.56 1 21.12 1 32 C0.67 32 0.34 32 0 32 C-0.33 29.36 -0.66 26.72 -1 24 C-1.33 24 -1.66 24 -2 24 C-2.05802698 20.56257082 -2.09360486 17.12526747 -2.125 13.6875 C-2.14175781 12.71103516 -2.15851563 11.73457031 -2.17578125 10.72851562 C-2.18222656 9.79072266 -2.18867188 8.85292969 -2.1953125 7.88671875 C-2.20578613 7.02264404 -2.21625977 6.15856934 -2.22705078 5.26831055 C-2 3 -2 3 0 0 Z " fill="#446568" transform="translate(514,261)"/>
<path d="M0 0 C2.24993359 -0.02707139 4.49996095 -0.04642829 6.75 -0.0625 C8.00296875 -0.07410156 9.2559375 -0.08570313 10.546875 -0.09765625 C14 0 14 0 18 1 C18 4.3 18 7.6 18 11 C16.35 11.33 14.7 11.66 13 12 C13 8.37 13 4.74 13 1 C8.71 1 4.42 1 0 1 C0 0.67 0 0.34 0 0 Z " fill="#E7F2F2" transform="translate(399,144)"/>
<path d="M0 0 C3 3 3 3 3.29296875 5.04296875 C3.1953125 7.02864583 3.09765625 9.01432292 3 11 C2.67 11 2.34 11 2 11 C1.67 23.54 1.34 36.08 1 49 C0.67 49 0.34 49 0 49 C0 32.83 0 16.66 0 0 Z " fill="#3C676A" transform="translate(425,207)"/>
<path d="M0 0 C0.33 0 0.66 0 1 0 C1.38063221 2.3260857 1.71269945 4.66055264 2 7 C1.67 7.33 1.34 7.66 1 8 C0.13184656 13.51595519 -0.13738313 18.86255957 -0.09765625 24.4375 C-0.0962413 25.20304199 -0.09482635 25.96858398 -0.09336853 26.75732422 C-0.08782853 29.17159142 -0.07528779 31.58576144 -0.0625 34 C-0.05747723 35.64973823 -0.05291569 37.29947794 -0.04882812 38.94921875 C-0.03787886 42.96618255 -0.02065666 46.98307487 0 51 C-0.66 51 -1.32 51 -2 51 C-2.05012236 45.98699333 -2.08605439 40.97413833 -2.10986328 35.9609375 C-2.11980786 34.26201836 -2.13336831 32.56311581 -2.15087891 30.86425781 C-2.25630763 20.35859566 -1.88598545 10.36973061 0 0 Z " fill="#B1C4C6" transform="translate(517,242)"/>
<path d="M0 0 C0.66 0.66 1.32 1.32 2 2 C1.04367001 3.29315061 0.08486149 4.58446853 -0.875 5.875 C-1.40867187 6.59429687 -1.94234375 7.31359375 -2.4921875 8.0546875 C-4 10 -4 10 -6 12 C-6.66 11.34 -7.32 10.68 -8 10 C-9.65 11.32 -11.3 12.64 -13 14 C-11.06382979 7.29787234 -11.06382979 7.29787234 -8 5 C-7.34 5 -6.68 5 -6 5 C-4.43733479 3.900237 -4.43733479 3.900237 -2.875 2.5 C-1.451875 1.2625 -1.451875 1.2625 0 0 Z " fill="#E9F3F2" transform="translate(517,149)"/>
<path d="M0 0 C1.06863281 0.556875 2.13726562 1.11375 3.23828125 1.6875 C4.04652344 2.120625 4.85476563 2.55375 5.6875 3 C2.42881735 4.08622755 1.29545726 3.91122669 -1.98046875 3.22265625 C-2.87314453 3.03896484 -3.76582031 2.85527344 -4.68554688 2.66601562 C-5.61431641 2.46685547 -6.54308594 2.26769531 -7.5 2.0625 C-8.44037109 1.86720703 -9.38074219 1.67191406 -10.34960938 1.47070312 C-12.67210454 0.98734119 -14.99286206 0.4968617 -17.3125 0 C-17.3125 -0.33 -17.3125 -0.66 -17.3125 -1 C-10.26842035 -3.62105289 -6.6886278 -3.52806741 0 0 Z " fill="#E6EFF1" transform="translate(480.3125,285)"/>
<path d="M0 0 C6.18820738 1.46562806 11.09651048 5.08459594 16 9 C16.33 9.66 16.66 10.32 17 11 C16.401875 10.814375 15.80375 10.62875 15.1875 10.4375 C12.83591238 9.77906313 12.83591238 9.77906313 10 11 C8.33035479 9.35718838 6.6643536 7.71067239 5 6.0625 C4.071875 5.14597656 3.14375 4.22945312 2.1875 3.28515625 C0 1 0 1 0 0 Z " fill="#546F57" transform="translate(471,215)"/>
<path d="M0 0 C1.58323688 -0.027193 3.16661062 -0.04648306 4.75 -0.0625 C6.07257812 -0.07990234 6.07257812 -0.07990234 7.421875 -0.09765625 C10 0 10 0 14 1 C14 3.97 14 6.94 14 10 C13.67 10 13.34 10 13 10 C12.67 8.35 12.34 6.7 12 5 C10.45049732 6.54950268 10.78344807 8.09990594 10.68359375 10.25390625 C10.64169922 11.10791016 10.59980469 11.96191406 10.55664062 12.84179688 C10.49766602 14.18854492 10.49766602 14.18854492 10.4375 15.5625 C10.39431641 16.46419922 10.35113281 17.36589844 10.30664062 18.29492188 C10.20021858 20.52978485 10.09820012 22.76476308 10 25 C9.67 25 9.34 25 9 25 C9 17.08 9 9.16 9 1 C6.03 1 3.06 1 0 1 C0 0.67 0 0.34 0 0 Z " fill="#DAE8E9" transform="translate(581,124)"/>
<path d="M0 0 C1.07765625 0.00902344 2.1553125 0.01804687 3.265625 0.02734375 C4.08546875 0.03894531 4.9053125 0.05054688 5.75 0.0625 C5.75 0.3925 5.75 0.7225 5.75 1.0625 C8.225 1.5575 8.225 1.5575 10.75 2.0625 C10.75 2.3925 10.75 2.7225 10.75 3.0625 C7.81225537 3.11640357 4.87549768 3.1561255 1.9375 3.1875 C1.10412109 3.20425781 0.27074219 3.22101563 -0.58789062 3.23828125 C-1.39033203 3.24472656 -2.19277344 3.25117188 -3.01953125 3.2578125 C-4.12711792 3.27352295 -4.12711792 3.27352295 -5.25708008 3.28955078 C-7.25 3.0625 -7.25 3.0625 -10.25 1.0625 C-6.78777385 -0.00473961 -3.60960734 -0.03923486 0 0 Z " fill="#395F61" transform="translate(578.25,264.9375)"/>
<path d="M0 0 C2.64 0 5.28 0 8 0 C8.02717692 2.06242617 8.0464758 4.12495703 8.0625 6.1875 C8.07410156 7.33605469 8.08570313 8.48460937 8.09765625 9.66796875 C8.01192832 12.59300586 7.67849023 15.16316291 7 18 C6.67 18 6.34 18 6 18 C5.67 12.72 5.34 7.44 5 2 C3.35 1.67 1.7 1.34 0 1 C0 0.67 0 0.34 0 0 Z " fill="#92AC8A" transform="translate(571,142)"/>
<path d="M0 0 C9.9 0 19.8 0 30 0 C30 0.33 30 0.66 30 1 C29.00419922 1.09087891 29.00419922 1.09087891 27.98828125 1.18359375 C21.45091919 1.79863507 21.45091919 1.79863507 15 3 C15 2.67 15 2.34 15 2 C10.05 1.67 5.1 1.34 0 1 C0 0.67 0 0.34 0 0 Z " fill="#5B797B" transform="translate(418,125)"/>
<path d="M0 0 C0 0.99 0 1.98 0 3 C1.32 3.33 2.64 3.66 4 4 C-1.28 4.66 -6.56 5.32 -12 6 C-10.66144904 3.32289809 -9.27941912 3.04870906 -6.5625 1.875 C-5.75941406 1.52179688 -4.95632813 1.16859375 -4.12890625 0.8046875 C-2 0 -2 0 0 0 Z " fill="#C5DCE1" transform="translate(552,282)"/>
<path d="M0 0 C4.29 0 8.58 0 13 0 C13 0.33 13 0.66 13 1 C12.37351562 1.03738281 11.74703125 1.07476562 11.1015625 1.11328125 C10.28429687 1.17902344 9.46703125 1.24476563 8.625 1.3125 C7.40683594 1.39951172 7.40683594 1.39951172 6.1640625 1.48828125 C3.62078662 1.82990528 3.62078662 1.82990528 2 5 C1.5396236 8.19806665 1.5396236 8.19806665 1.375 11.6875 C1.30023438 12.86699219 1.22546875 14.04648438 1.1484375 15.26171875 C1.07496094 16.61716797 1.07496094 16.61716797 1 18 C0.67 18 0.34 18 0 18 C0 12.06 0 6.12 0 0 Z " fill="#D2E5E7" transform="translate(429,136)"/>
<path d="M0 0 C1.98 0 3.96 0 6 0 C5.01 0.33 4.02 0.66 3 1 C3.05220703 1.93972656 3.05220703 1.93972656 3.10546875 2.8984375 C3.13253906 3.71570313 3.15960938 4.53296875 3.1875 5.375 C3.22230469 6.18710938 3.25710938 6.99921875 3.29296875 7.8359375 C3.19628906 8.55007812 3.09960938 9.26421875 3 10 C2.01 10.66 1.02 11.32 0 12 C0 8.04 0 4.08 0 0 Z " fill="#3E6262" transform="translate(445,192)"/>
<path d="M0 0 C0.66666667 1.33333333 1.33333333 2.66666667 2 4 C2.433125 4.61875 2.86625 5.2375 3.3125 5.875 C4 8 4 8 2.625 11.25 C2.08875 12.1575 1.5525 13.065 1 14 C0.34 14 -0.32 14 -1 14 C-1.33 11.69 -1.66 9.38 -2 7 C-1.34 7 -0.68 7 0 7 C0 4.69 0 2.38 0 0 Z " fill="#93AE8C" transform="translate(517,190)"/>
<path d="M0 0 C2.35119399 3.52679099 2.21443452 5.02879485 2.125 9.1875 C2.10695313 10.27417969 2.08890625 11.36085937 2.0703125 12.48046875 C2.03550781 13.72763672 2.03550781 13.72763672 2 15 C2.99 14.67 3.98 14.34 5 14 C4.67 16.64 4.34 19.28 4 22 C2.0408526 20.36927777 1.0931671 19.44921166 0.56762695 16.9152832 C0.54144287 16.13499756 0.51525879 15.35471191 0.48828125 14.55078125 C0.43510742 13.27944336 0.43510742 13.27944336 0.38085938 11.98242188 C0.35830078 11.10134766 0.33574219 10.22027344 0.3125 9.3125 C0.27833984 8.41982422 0.24417969 7.52714844 0.20898438 6.60742188 C0.12654352 4.40507329 0.05738449 2.20312062 0 0 Z " fill="#D9E8E6" transform="translate(502,224)"/>
<path d="M0 0 C2.97 0 5.94 0 9 0 C9.33 0.66 9.66 1.32 10 2 C11.88764903 2.68472665 11.88764903 2.68472665 14.0625 3.125 C14.79597656 3.29257813 15.52945312 3.46015625 16.28515625 3.6328125 C16.85105469 3.75398437 17.41695313 3.87515625 18 4 C18 4.33 18 4.66 18 5 C7.44191344 4.03644647 7.44191344 4.03644647 3 3 C3 2.34 3 1.68 3 1 C2.01 0.67 1.02 0.34 0 0 Z " fill="#3F666A" transform="translate(445,134)"/>
<path d="M0 0 C5.28 0 10.56 0 16 0 C16 1.65 16 3.3 16 5 C15.67 4.34 15.34 3.68 15 3 C12.69 3 10.38 3 8 3 C8 2.67 8 2.34 8 2 C5.36 1.67 2.72 1.34 0 1 C0 0.67 0 0.34 0 0 Z " fill="#537373" transform="translate(573,125)"/>
<path d="M0 0 C0.66 0.33 1.32 0.66 2 1 C0.4169423 5.2742558 -2.50568404 7.26531794 -6 10 C-7 9 -7 9 -7.09765625 7.15234375 C-7.06510417 5.1015625 -7.03255208 3.05078125 -7 1 C-6.34 2.32 -5.68 3.64 -5 5 C-3.00016466 4.20882096 -3.00016466 4.20882096 -1 3 C-0.67 2.01 -0.34 1.02 0 0 Z " fill="#486968" transform="translate(512,322)"/>
<path d="M0 0 C2.26273207 3.55818936 2.07331744 6.12547951 1.625 10.25 C1.51414062 11.32765625 1.40328125 12.4053125 1.2890625 13.515625 C1.19367187 14.33546875 1.09828125 15.1553125 1 16 C0.34 16 -0.32 16 -1 16 C-1.02685095 13.52076199 -1.04676547 11.0418116 -1.0625 8.5625 C-1.07506836 7.50192383 -1.07506836 7.50192383 -1.08789062 6.41992188 C-1.09653588 4.61306441 -1.05220011 2.80612397 -1 1 C-0.67 0.67 -0.34 0.34 0 0 Z " fill="#E2F2EA" transform="translate(516,181)"/>
<path d="M0 0 C0 3.50749976 -0.4757369 3.88682106 -2.75 6.375 C-3.29398438 6.98214844 -3.83796875 7.58929688 -4.3984375 8.21484375 C-4.92695312 8.80394531 -5.45546875 9.39304687 -6 10 C-7.34192868 11.65975389 -8.67909475 13.32346641 -10 15 C-10.66 14.67 -11.32 14.34 -12 14 C-8.34161026 8.88863277 -4.55388068 4.33702922 0 0 Z " fill="#F4FAFB" transform="translate(526,312)"/>
<path d="M0 0 C0.66 0.33 1.32 0.66 2 1 C1.360625 1.226875 0.72125 1.45375 0.0625 1.6875 C-2.27193661 2.85250896 -2.27193661 2.85250896 -2.75 5.625 C-2.8325 6.40875 -2.915 7.1925 -3 8 C-4.32 8.33 -5.64 8.66 -7 9 C-7 7.02 -7 5.04 -7 3 C-4.69631264 1.93347808 -2.35981813 0.93578995 0 0 Z " fill="#E4EEEA" transform="translate(551,142)"/>
<path d="M0 0 C-0.66 1.65 -1.32 3.3 -2 5 C-3.98 5 -5.96 5 -8 5 C-8 4.34 -8 3.68 -8 3 C-8.66 2.67 -9.32 2.34 -10 2 C-3.375 0 -3.375 0 0 0 Z " fill="#547675" transform="translate(561,128)"/>
<path d="M0 0 C1 3 1 3 -0.1875 6.5625 C-1.94478806 9.8952877 -2.50915788 10.91663521 -6 12 C-4.68139111 7.38486888 -2.78644563 3.90102388 0 0 Z " fill="#9BAA86" transform="translate(527,166)"/>
<path d="M0 0 C0.33 0.66 0.66 1.32 1 2 C1.99 2 2.98 2 4 2 C4.33 2.99 4.66 3.98 5 5 C4.01 6.485 4.01 6.485 3 8 C2.34 7.67 1.68 7.34 1 7 C0.67 8.32 0.34 9.64 0 11 C0 7.37 0 3.74 0 0 Z " fill="#426369" transform="translate(612,145)"/>
<path d="M0 0 C0 0.99 0 1.98 0 3 C-3.5460927 5.80388725 -6.4926374 7.46972205 -11 8 C-7.72291137 4.32966073 -4.28477792 2.30718811 0 0 Z " fill="#9FAE8B" transform="translate(546,150)"/>
<path d="M0 0 C0.66 0.33 1.32 0.66 2 1 C0.63629701 3.99220268 -0.94908083 6.29026529 -3.125 8.75 C-3.93324219 9.67039063 -3.93324219 9.67039063 -4.7578125 10.609375 C-5.16773438 11.06828125 -5.57765625 11.5271875 -6 12 C-6 10 -6 8 -6 6 C-4.34467377 4.98133771 -2.67739862 3.98189187 -1 3 C-0.67 2.01 -0.34 1.02 0 0 Z " fill="#90AB85" transform="translate(532,178)"/>
<path d="M0 0 C0.33 0 0.66 0 1 0 C1.38873828 1.95565258 1.76060833 3.91466504 2.125 5.875 C2.33382813 6.96554688 2.54265625 8.05609375 2.7578125 9.1796875 C2.83773438 10.11039063 2.91765625 11.04109375 3 12 C2.34 12.66 1.68 13.32 1 14 C-0.512545 8.83955235 -1.33500455 5.34001821 0 0 Z " fill="#577A69" transform="translate(456,204)"/>
<path d="M0 0 C0.33 0 0.66 0 1 0 C1.36263859 5.8022175 0.25684543 9.63999211 -2 15 C-2.66 14.01 -3.32 13.02 -4 12 C-3.07989717 9.6340213 -2.07136051 7.30144109 -1 5 C-0.30859478 2.22111387 -0.30859478 2.22111387 0 0 Z " fill="#92AE87" transform="translate(575,164)"/>
<path d="M0 0 C0.33 0 0.66 0 1 0 C1 5.61 1 11.22 1 17 C0.67 17 0.34 17 0 17 C-0.06058594 16.33613281 -0.12117188 15.67226563 -0.18359375 14.98828125 C-0.69404742 9.45751714 -0.69404742 9.45751714 -1.6875 4 C-1.790625 3.34 -1.89375 2.68 -2 2 C-1.34 1.34 -0.68 0.68 0 0 Z " fill="#3E6768" transform="translate(505,265)"/>
<path d="M0 0 C0 3.63 0 7.26 0 11 C-0.33 11 -0.66 11 -1 11 C-1.33 9.02 -1.66 7.04 -2 5 C-2.66 5 -3.32 5 -4 5 C-4 3.68 -4 2.36 -4 1 C-2 0 -2 0 0 0 Z " fill="#3F6165" transform="translate(498,283)"/>
<path d="M0 0 C-2.66315194 2.66315194 -4.65344068 2.94426493 -8.359375 3.09765625 C-9.14828125 3.08605469 -9.9371875 3.07445312 -10.75 3.0625 C-11.54921875 3.05347656 -12.3484375 3.04445312 -13.171875 3.03515625 C-13.77515625 3.02355469 -14.3784375 3.01195312 -15 3 C-15 2.67 -15 2.34 -15 2 C-9.77487721 0.53329887 -5.4185766 -0.22577402 0 0 Z " fill="#446060" transform="translate(542,220)"/>
<path d="M0 0 C-0.66 1.32 -1.32 2.64 -2 4 C-4.31 3.34 -6.62 2.68 -9 2 C-5.96271914 -1.03728086 -4.06215635 -1.35405212 0 0 Z " fill="#5F7C83" transform="translate(490,298)"/>
<path d="M0 0 C1.48199902 0.44909061 2.96055236 0.90956564 4.4375 1.375 C5.26121094 1.63023437 6.08492188 1.88546875 6.93359375 2.1484375 C9 3 9 3 10 5 C6.37 4.34 2.74 3.68 -1 3 C-0.67 2.01 -0.34 1.02 0 0 Z " fill="#BFD6D9" transform="translate(476,284)"/>
<path d="M0 0 C0.99 0 1.98 0 3 0 C4.34919532 1.65385233 5.68133728 3.321702 7 5 C9.11660427 6.31165257 9.11660427 6.31165257 11 7 C11 7.66 11 8.32 11 9 C5.70841026 7.59928507 3.22521956 4.14512755 0 0 Z " fill="#88A581" transform="translate(464,226)"/>
<path d="M0 0 C0.33 0 0.66 0 1 0 C1.38063221 2.3260857 1.71269945 4.66055264 2 7 C1.67 7.33 1.34 7.66 1 8 C0.76924918 9.34747084 0.58846937 10.70377565 0.4375 12.0625 C0.293125 13.361875 0.14875 14.66125 0 16 C-0.33 16 -0.66 16 -1 16 C-1.09688221 10.55306686 -1.12862175 5.36095333 0 0 Z " fill="#CDDDDF" transform="translate(517,242)"/>
<path d="M0 0 C1.65 0 3.3 0 5 0 C4.34 1.98 3.68 3.96 3 6 C1.5 4.6875 1.5 4.6875 0 3 C0 2.01 0 1.02 0 0 Z " fill="#547073" transform="translate(500,159)"/>
<path d="M0 0 C0 0.99 0 1.98 0 3 C1.32 3.33 2.64 3.66 4 4 C1.36 4 -1.28 4 -4 4 C-4 3.01 -4 2.02 -4 1 C-2 0 -2 0 0 0 Z " fill="#D6E4E5" transform="translate(552,282)"/>
<path d="M0 0 C4.75 0.75 4.75 0.75 7 3 C5.02 3.33 3.04 3.66 1 4 C0.67 2.68 0.34 1.36 0 0 Z " fill="#3C5F60" transform="translate(470,270)"/>
<path d="M0 0 C2.97 0 5.94 0 9 0 C5.71299843 1.64350079 3.52069985 2.41321669 0 3 C0 2.01 0 1.02 0 0 Z " fill="#7B947F" transform="translate(458,192)"/>
<path d="M0 0 C7.50769231 -0.36923077 7.50769231 -0.36923077 10 1.5 C10.495 2.2425 10.495 2.2425 11 3 C9 4 9 4 6.8359375 3.44140625 C6.02382813 3.15136719 5.21171875 2.86132812 4.375 2.5625 C3.55773437 2.27503906 2.74046875 1.98757813 1.8984375 1.69140625 C1.27195312 1.46324219 0.64546875 1.23507812 0 1 C0 0.67 0 0.34 0 0 Z " fill="#CCDCDC" transform="translate(466,268)"/>
<path d="M0 0 C-0.66 1.32 -1.32 2.64 -2 4 C-4.475 3.01 -4.475 3.01 -7 2 C-6 0 -6 0 -4.0625 -0.6875 C-2 -1 -2 -1 0 0 Z " fill="#476654" transform="translate(548,172)"/>
</svg>
